<svg xmlns="http://www.w3.org/2000/svg" xmlns:xlink="http://www.w3.org/1999/xlink" width="500" zoomAndPan="magnify" viewBox="0 0 375 374.999991" height="500" preserveAspectRatio="xMidYMid meet" version="1.0"><defs><g/><clipPath id="d212a5f31a"><path d="M 143.726562 163 L 231.476562 163 L 231.476562 172.21875 L 143.726562 172.21875 Z M 143.726562 163 " clip-rule="nonzero"/></clipPath><clipPath id="858c792630"><path d="M 166 114.46875 L 209 114.46875 L 209 166 L 166 166 Z M 166 114.46875 " clip-rule="nonzero"/></clipPath></defs><rect x="-37.5" width="450" fill="#ffffff" y="-37.499999" height="449.999989" fill-opacity="1"/><rect x="-37.5" width="450" fill="#1d4856" y="-37.499999" height="449.999989" fill-opacity="1"/><g clip-path="url(#d212a5f31a)"><path fill="#ffbd59" d="M 187.492188 166.753906 C 204.027344 166.753906 219.222656 168.847656 231.207031 172.34375 C 222.421875 166.867188 206.136719 163.1875 187.492188 163.1875 C 168.847656 163.1875 152.558594 166.867188 143.777344 172.34375 C 155.757812 168.847656 170.957031 166.753906 187.492188 166.753906 " fill-opacity="1" fill-rule="nonzero"/></g><g clip-path="url(#858c792630)"><path fill="#ffbd59" d="M 178.34375 136.765625 L 178.34375 163.761719 C 180.539062 163.617188 182.785156 163.519531 185.070312 163.480469 L 185.070312 133.476562 C 184.875 133.582031 184.675781 133.6875 184.480469 133.792969 C 182.433594 134.886719 180.382812 135.875 178.34375 136.765625 Z M 201.328125 121.941406 L 201.328125 164.160156 C 203.640625 164.398438 205.886719 164.699219 208.054688 165.050781 L 208.054688 114.46875 C 206.226562 116.964844 203.964844 119.484375 201.328125 121.941406 Z M 189.835938 163.480469 C 192.121094 163.519531 194.367188 163.613281 196.5625 163.757812 L 196.5625 125.992188 C 194.476562 127.617188 192.226562 129.191406 189.835938 130.691406 Z M 166.976562 165.042969 C 169.105469 164.695312 171.308594 164.402344 173.578125 164.167969 L 173.578125 138.675781 C 171.339844 139.492188 169.132812 140.183594 166.976562 140.746094 L 166.976562 165.042969 " fill-opacity="1" fill-rule="nonzero"/></g><g fill="#ffffff" fill-opacity="1"><g transform="translate(72.071551, 201.840911)"><g><path d="M 8.78125 0.390625 C 7.28125 0.390625 5.957031 0.117188 4.8125 -0.421875 C 3.664062 -0.960938 2.769531 -1.738281 2.125 -2.75 C 1.476562 -3.769531 1.15625 -4.984375 1.15625 -6.390625 L 5.453125 -6.390625 C 5.453125 -5.429688 5.785156 -4.722656 6.453125 -4.265625 C 7.117188 -3.804688 7.882812 -3.578125 8.75 -3.578125 C 9.289062 -3.578125 9.800781 -3.664062 10.28125 -3.84375 C 10.757812 -4.019531 11.148438 -4.28125 11.453125 -4.625 C 11.765625 -4.96875 11.921875 -5.382812 11.921875 -5.875 C 11.921875 -6.382812 11.742188 -6.785156 11.390625 -7.078125 C 11.035156 -7.367188 10.554688 -7.609375 9.953125 -7.796875 C 9.359375 -7.984375 8.703125 -8.160156 7.984375 -8.328125 C 7.253906 -8.492188 6.503906 -8.695312 5.734375 -8.9375 C 4.960938 -9.1875 4.25 -9.507812 3.59375 -9.90625 C 2.9375 -10.3125 2.410156 -10.859375 2.015625 -11.546875 C 1.628906 -12.234375 1.4375 -13.097656 1.4375 -14.140625 C 1.4375 -16.035156 2.078125 -17.492188 3.359375 -18.515625 C 4.640625 -19.535156 6.378906 -20.046875 8.578125 -20.046875 C 10.828125 -20.046875 12.570312 -19.476562 13.8125 -18.34375 C 15.050781 -17.21875 15.671875 -15.675781 15.671875 -13.71875 L 11.453125 -13.71875 C 11.453125 -14.5625 11.148438 -15.1875 10.546875 -15.59375 C 9.941406 -16 9.25 -16.203125 8.46875 -16.203125 C 7.769531 -16.203125 7.128906 -16.050781 6.546875 -15.75 C 5.972656 -15.445312 5.6875 -14.976562 5.6875 -14.34375 C 5.6875 -13.875 5.859375 -13.503906 6.203125 -13.234375 C 6.546875 -12.960938 7.003906 -12.738281 7.578125 -12.5625 C 8.148438 -12.382812 8.785156 -12.207031 9.484375 -12.03125 C 10.234375 -11.84375 11 -11.625 11.78125 -11.375 C 12.570312 -11.125 13.300781 -10.78125 13.96875 -10.34375 C 14.644531 -9.914062 15.191406 -9.34375 15.609375 -8.625 C 16.035156 -7.914062 16.25 -7.019531 16.25 -5.9375 C 16.25 -4.507812 15.90625 -3.328125 15.21875 -2.390625 C 14.539062 -1.453125 13.640625 -0.753906 12.515625 -0.296875 C 11.390625 0.160156 10.144531 0.390625 8.78125 0.390625 Z M 8.78125 0.390625 "/></g></g></g><g fill="#ffffff" fill-opacity="1"><g transform="translate(88.243208, 201.840911)"><g><path d="M 10.1875 0.421875 C 8.625 0.421875 7.234375 0.0859375 6.015625 -0.578125 C 4.796875 -1.242188 3.828125 -2.160156 3.109375 -3.328125 C 2.398438 -4.503906 2.046875 -5.859375 2.046875 -7.390625 L 2.046875 -19.6875 L 6.328125 -19.6875 L 6.328125 -7.59375 C 6.328125 -6.375 6.6875 -5.398438 7.40625 -4.671875 C 8.132812 -3.953125 9.0625 -3.59375 10.1875 -3.59375 C 11.320312 -3.59375 12.25 -3.953125 12.96875 -4.671875 C 13.695312 -5.398438 14.0625 -6.375 14.0625 -7.59375 L 14.0625 -19.6875 L 18.3125 -19.6875 L 18.3125 -7.390625 C 18.3125 -5.859375 17.957031 -4.503906 17.25 -3.328125 C 16.550781 -2.160156 15.585938 -1.242188 14.359375 -0.578125 C 13.128906 0.0859375 11.738281 0.421875 10.1875 0.421875 Z M 10.1875 0.421875 "/></g></g></g><g fill="#ffffff" fill-opacity="1"><g transform="translate(107.367978, 201.840911)"><g><path d="M 9.8125 -19.6875 C 11.144531 -19.6875 12.332031 -19.390625 13.375 -18.796875 C 14.414062 -18.210938 15.242188 -17.40625 15.859375 -16.375 C 16.484375 -15.351562 16.796875 -14.195312 16.796875 -12.90625 C 16.796875 -11.613281 16.488281 -10.457031 15.875 -9.4375 C 15.269531 -8.414062 14.441406 -7.613281 13.390625 -7.03125 C 12.335938 -6.445312 11.144531 -6.15625 9.8125 -6.15625 L 6.53125 -6.15625 L 6.53125 0 L 2.25 0 L 2.25 -19.6875 Z M 9.640625 -10.09375 C 10.484375 -10.09375 11.160156 -10.359375 11.671875 -10.890625 C 12.191406 -11.429688 12.453125 -12.101562 12.453125 -12.90625 C 12.453125 -13.726562 12.191406 -14.40625 11.671875 -14.9375 C 11.160156 -15.476562 10.484375 -15.75 9.640625 -15.75 L 6.53125 -15.75 L 6.53125 -10.09375 Z M 9.640625 -10.09375 "/></g></g></g><g fill="#ffffff" fill-opacity="1"><g transform="translate(123.624, 201.840911)"><g><path d="M 13.078125 0 L 9.25 -6.71875 L 6.53125 -6.71875 L 6.53125 0 L 2.25 0 L 2.25 -19.6875 L 10.203125 -19.6875 C 11.515625 -19.6875 12.6875 -19.40625 13.71875 -18.84375 C 14.75 -18.28125 15.566406 -17.507812 16.171875 -16.53125 C 16.773438 -15.5625 17.078125 -14.4375 17.078125 -13.15625 C 17.078125 -11.882812 16.75 -10.742188 16.09375 -9.734375 C 15.445312 -8.734375 14.582031 -7.972656 13.5 -7.453125 L 17.859375 0 Z M 6.53125 -15.75 L 6.53125 -10.65625 L 9.921875 -10.65625 C 10.804688 -10.65625 11.5 -10.894531 12 -11.375 C 12.507812 -11.851562 12.765625 -12.457031 12.765625 -13.1875 C 12.765625 -13.9375 12.507812 -14.550781 12 -15.03125 C 11.5 -15.507812 10.804688 -15.75 9.921875 -15.75 Z M 6.53125 -15.75 "/></g></g></g><g fill="#ffffff" fill-opacity="1"><g transform="translate(140.976893, 201.840911)"><g><path d="M 6.53125 -3.96875 L 14.375 -3.96875 L 14.375 0 L 2.25 0 L 2.25 -19.6875 L 14.0625 -19.6875 L 14.0625 -15.75 L 6.53125 -15.75 L 6.53125 -11.875 L 13.328125 -11.875 L 13.328125 -8.015625 L 6.53125 -8.015625 Z M 6.53125 -3.96875 "/></g></g></g><g fill="#ffffff" fill-opacity="1"><g transform="translate(155.461049, 201.840911)"><g><path d="M 26.375 0 L 22.046875 0 L 20.109375 -12.859375 L 14.234375 -0.03125 L 13.1875 -0.03125 L 7.3125 -12.859375 L 5.375 0 L 1.015625 0 L 4.109375 -19.6875 L 8.375 -19.6875 L 13.703125 -7.625 L 19.046875 -19.6875 L 23.3125 -19.6875 Z M 26.375 0 "/></g></g></g><g fill="#ffffff" fill-opacity="1"><g transform="translate(181.645175, 201.840911)"><g><path d="M 6.53125 -3.96875 L 14.375 -3.96875 L 14.375 0 L 2.25 0 L 2.25 -19.6875 L 14.0625 -19.6875 L 14.0625 -15.75 L 6.53125 -15.75 L 6.53125 -11.875 L 13.328125 -11.875 L 13.328125 -8.015625 L 6.53125 -8.015625 Z M 6.53125 -3.96875 "/></g></g></g><g fill="#ffffff" fill-opacity="1"><g transform="translate(196.129332, 201.840911)"><g/></g></g><g fill="#ffffff" fill-opacity="1"><g transform="translate(201.613512, 201.840911)"><g><path d="M 14.734375 -19.6875 L 19.375 -19.6875 L 11.953125 0 L 7.9375 0 L 0.21875 -19.6875 L 4.921875 -19.6875 L 9.90625 -5.765625 Z M 14.734375 -19.6875 "/></g></g></g><g fill="#ffffff" fill-opacity="1"><g transform="translate(220.119534, 201.840911)"><g><path d="M 15.328125 0 L 13.953125 -3.734375 L 6.109375 -3.734375 L 4.75 0 L 0.25 0 L 7.953125 -19.6875 L 11.984375 -19.6875 L 19.9375 0 Z M 10.015625 -14.484375 L 7.453125 -7.453125 L 12.59375 -7.453125 Z M 10.015625 -14.484375 "/></g></g></g><g fill="#ffffff" fill-opacity="1"><g transform="translate(239.07555, 201.840911)"><g><path d="M 6.53125 -3.96875 L 14.0625 -3.96875 L 14.0625 0 L 2.25 0 L 2.25 -19.6875 L 6.53125 -19.6875 Z M 6.53125 -3.96875 "/></g></g></g><g fill="#ffffff" fill-opacity="1"><g transform="translate(252.519083, 201.840911)"><g><path d="M 14.734375 -19.6875 L 19.375 -19.6875 L 11.953125 0 L 7.9375 0 L 0.21875 -19.6875 L 4.921875 -19.6875 L 9.90625 -5.765625 Z M 14.734375 -19.6875 "/></g></g></g><g fill="#ffffff" fill-opacity="1"><g transform="translate(271.025106, 201.840911)"><g><path d="M 6.53125 -3.96875 L 14.375 -3.96875 L 14.375 0 L 2.25 0 L 2.25 -19.6875 L 14.0625 -19.6875 L 14.0625 -15.75 L 6.53125 -15.75 L 6.53125 -11.875 L 13.328125 -11.875 L 13.328125 -8.015625 L 6.53125 -8.015625 Z M 6.53125 -3.96875 "/></g></g></g><g fill="#ffffff" fill-opacity="1"><g transform="translate(285.509251, 201.840911)"><g><path d="M 8.78125 0.390625 C 7.28125 0.390625 5.957031 0.117188 4.8125 -0.421875 C 3.664062 -0.960938 2.769531 -1.738281 2.125 -2.75 C 1.476562 -3.769531 1.15625 -4.984375 1.15625 -6.390625 L 5.453125 -6.390625 C 5.453125 -5.429688 5.785156 -4.722656 6.453125 -4.265625 C 7.117188 -3.804688 7.882812 -3.578125 8.75 -3.578125 C 9.289062 -3.578125 9.800781 -3.664062 10.28125 -3.84375 C 10.757812 -4.019531 11.148438 -4.28125 11.453125 -4.625 C 11.765625 -4.96875 11.921875 -5.382812 11.921875 -5.875 C 11.921875 -6.382812 11.742188 -6.785156 11.390625 -7.078125 C 11.035156 -7.367188 10.554688 -7.609375 9.953125 -7.796875 C 9.359375 -7.984375 8.703125 -8.160156 7.984375 -8.328125 C 7.253906 -8.492188 6.503906 -8.695312 5.734375 -8.9375 C 4.960938 -9.1875 4.25 -9.507812 3.59375 -9.90625 C 2.9375 -10.3125 2.410156 -10.859375 2.015625 -11.546875 C 1.628906 -12.234375 1.4375 -13.097656 1.4375 -14.140625 C 1.4375 -16.035156 2.078125 -17.492188 3.359375 -18.515625 C 4.640625 -19.535156 6.378906 -20.046875 8.578125 -20.046875 C 10.828125 -20.046875 12.570312 -19.476562 13.8125 -18.34375 C 15.050781 -17.21875 15.671875 -15.675781 15.671875 -13.71875 L 11.453125 -13.71875 C 11.453125 -14.5625 11.148438 -15.1875 10.546875 -15.59375 C 9.941406 -16 9.25 -16.203125 8.46875 -16.203125 C 7.769531 -16.203125 7.128906 -16.050781 6.546875 -15.75 C 5.972656 -15.445312 5.6875 -14.976562 5.6875 -14.34375 C 5.6875 -13.875 5.859375 -13.503906 6.203125 -13.234375 C 6.546875 -12.960938 7.003906 -12.738281 7.578125 -12.5625 C 8.148438 -12.382812 8.785156 -12.207031 9.484375 -12.03125 C 10.234375 -11.84375 11 -11.625 11.78125 -11.375 C 12.570312 -11.125 13.300781 -10.78125 13.96875 -10.34375 C 14.644531 -9.914062 15.191406 -9.34375 15.609375 -8.625 C 16.035156 -7.914062 16.25 -7.019531 16.25 -5.9375 C 16.25 -4.507812 15.90625 -3.328125 15.21875 -2.390625 C 14.539062 -1.453125 13.640625 -0.753906 12.515625 -0.296875 C 11.390625 0.160156 10.144531 0.390625 8.78125 0.390625 Z M 8.78125 0.390625 "/></g></g></g><g fill="#ffffff" fill-opacity="1"><g transform="translate(124.536123, 221.026958)"><g><path d="M 3.046875 -0.65625 L 4.109375 -0.625 C 4.316406 -0.613281 4.421875 -0.515625 4.421875 -0.328125 L 4.421875 0 L 0.8125 0 L 0.8125 -0.328125 C 0.8125 -0.503906 0.921875 -0.601562 1.140625 -0.625 L 2.203125 -0.65625 L 2.203125 -10.921875 L 1.140625 -10.953125 C 0.921875 -10.984375 0.8125 -11.082031 0.8125 -11.25 L 0.8125 -11.578125 L 4.421875 -11.578125 L 4.421875 -11.25 C 4.421875 -11.070312 4.316406 -10.972656 4.109375 -10.953125 L 3.046875 -10.921875 Z M 3.046875 -0.65625 "/></g></g></g><g fill="#ffffff" fill-opacity="1"><g transform="translate(129.70729, 221.026958)"><g><path d="M 9.28125 -0.625 C 9.5 -0.601562 9.609375 -0.503906 9.609375 -0.328125 L 9.609375 0 L 7.640625 0 L 7.640625 -5.203125 C 7.640625 -5.960938 7.460938 -6.554688 7.109375 -6.984375 C 6.765625 -7.421875 6.234375 -7.640625 5.515625 -7.640625 C 4.472656 -7.640625 3.566406 -7.128906 2.796875 -6.109375 L 2.796875 -0.65625 L 3.671875 -0.625 C 3.867188 -0.613281 3.96875 -0.515625 3.96875 -0.328125 L 3.96875 0 L 0.84375 0 L 0.84375 -0.328125 C 0.84375 -0.515625 0.945312 -0.613281 1.15625 -0.625 L 2.03125 -0.65625 L 2.03125 -7.515625 L 1.140625 -7.546875 C 1.035156 -7.554688 0.957031 -7.582031 0.90625 -7.625 C 0.851562 -7.664062 0.828125 -7.738281 0.828125 -7.84375 L 0.828125 -8.140625 L 2.453125 -8.140625 C 2.609375 -8.140625 2.691406 -8.078125 2.703125 -7.953125 L 2.765625 -6.703125 C 3.578125 -7.742188 4.554688 -8.265625 5.703125 -8.265625 C 6.585938 -8.265625 7.257812 -7.988281 7.71875 -7.4375 C 8.1875 -6.894531 8.421875 -6.148438 8.421875 -5.203125 L 8.421875 -0.65625 Z M 9.28125 -0.625 "/></g></g></g><g fill="#ffffff" fill-opacity="1"><g transform="translate(140.00053, 221.026958)"><g><path d="M 7 0 C 6.863281 0 6.785156 -0.0703125 6.765625 -0.21875 L 6.6875 -1.5 C 5.90625 -0.4375 4.941406 0.09375 3.796875 0.09375 C 2.710938 0.09375 1.910156 -0.269531 1.390625 -1 C 0.878906 -1.738281 0.625 -2.757812 0.625 -4.0625 C 0.625 -4.851562 0.757812 -5.570312 1.03125 -6.21875 C 1.3125 -6.863281 1.71875 -7.367188 2.25 -7.734375 C 2.789062 -8.097656 3.429688 -8.28125 4.171875 -8.28125 C 5.242188 -8.28125 6.070312 -7.878906 6.65625 -7.078125 L 6.65625 -11.25 L 5.8125 -11.28125 C 5.59375 -11.3125 5.484375 -11.410156 5.484375 -11.578125 L 5.484375 -11.90625 L 7.421875 -11.90625 L 7.421875 -0.640625 L 8.21875 -0.625 C 8.414062 -0.613281 8.515625 -0.515625 8.515625 -0.328125 L 8.515625 0 Z M 6.65625 -6.390625 C 6.09375 -7.242188 5.3125 -7.671875 4.3125 -7.671875 C 3.351562 -7.671875 2.628906 -7.332031 2.140625 -6.65625 C 1.660156 -5.988281 1.421875 -5.125 1.421875 -4.0625 C 1.421875 -1.707031 2.289062 -0.53125 4.03125 -0.53125 C 5.03125 -0.53125 5.90625 -1.054688 6.65625 -2.109375 Z M 6.65625 -6.390625 "/></g></g></g><g fill="#ffffff" fill-opacity="1"><g transform="translate(149.164632, 221.026958)"><g><path d="M 8.765625 -0.625 C 8.984375 -0.601562 9.09375 -0.503906 9.09375 -0.328125 L 9.09375 0 L 7.5 0 C 7.332031 0 7.25 -0.0703125 7.25 -0.21875 L 7.1875 -1.421875 C 6.789062 -0.929688 6.34375 -0.550781 5.84375 -0.28125 C 5.34375 -0.0078125 4.800781 0.125 4.21875 0.125 C 3.332031 0.125 2.65625 -0.148438 2.1875 -0.703125 C 1.726562 -1.253906 1.5 -2 1.5 -2.9375 L 1.5 -7.5 L 0.65625 -7.53125 C 0.4375 -7.550781 0.328125 -7.644531 0.328125 -7.8125 L 0.328125 -8.125 L 1.5 -8.125 L 2.296875 -8.140625 L 2.296875 -2.9375 C 2.296875 -2.164062 2.472656 -1.5625 2.828125 -1.125 C 3.179688 -0.695312 3.710938 -0.484375 4.421875 -0.484375 C 4.929688 -0.484375 5.421875 -0.617188 5.890625 -0.890625 C 6.359375 -1.171875 6.769531 -1.550781 7.125 -2.03125 L 7.125 -7.5 L 6.28125 -7.53125 C 6.0625 -7.550781 5.953125 -7.644531 5.953125 -7.8125 L 5.953125 -8.125 L 7.125 -8.125 L 7.921875 -8.140625 L 7.921875 -0.65625 Z M 8.765625 -0.625 "/></g></g></g><g fill="#ffffff" fill-opacity="1"><g transform="translate(158.950575, 221.026958)"><g><path d="M 6.34375 -2.390625 C 6.34375 -1.628906 6.070312 -1.019531 5.53125 -0.5625 C 5 -0.101562 4.316406 0.125 3.484375 0.125 C 2.703125 0.125 1.898438 -0.0234375 1.078125 -0.328125 L 1.078125 -2.3125 L 1.46875 -2.3125 C 1.695312 -2.3125 1.816406 -2.175781 1.828125 -1.90625 L 1.9375 -0.703125 C 2.351562 -0.523438 2.878906 -0.4375 3.515625 -0.4375 C 4.117188 -0.4375 4.617188 -0.597656 5.015625 -0.921875 C 5.410156 -1.253906 5.609375 -1.695312 5.609375 -2.25 C 5.609375 -2.695312 5.425781 -3.035156 5.0625 -3.265625 C 4.695312 -3.503906 4.125 -3.738281 3.34375 -3.96875 C 2.59375 -4.175781 2.023438 -4.4375 1.640625 -4.75 C 1.265625 -5.0625 1.078125 -5.5 1.078125 -6.0625 C 1.078125 -6.5 1.195312 -6.882812 1.4375 -7.21875 C 1.6875 -7.550781 2.015625 -7.804688 2.421875 -7.984375 C 2.835938 -8.171875 3.285156 -8.265625 3.765625 -8.265625 C 4.378906 -8.265625 5.097656 -8.125 5.921875 -7.84375 L 5.921875 -5.890625 L 5.53125 -5.890625 C 5.3125 -5.890625 5.191406 -6.019531 5.171875 -6.28125 L 5.078125 -7.453125 C 4.648438 -7.597656 4.21875 -7.671875 3.78125 -7.671875 C 3.25 -7.671875 2.785156 -7.53125 2.390625 -7.25 C 2.003906 -6.96875 1.8125 -6.59375 1.8125 -6.125 C 1.8125 -5.820312 1.90625 -5.570312 2.09375 -5.375 C 2.28125 -5.1875 2.519531 -5.03125 2.8125 -4.90625 C 3.113281 -4.78125 3.535156 -4.640625 4.078125 -4.484375 C 4.796875 -4.273438 5.351562 -4.007812 5.75 -3.6875 C 6.144531 -3.363281 6.34375 -2.929688 6.34375 -2.390625 Z M 6.34375 -2.390625 "/></g></g></g><g fill="#ffffff" fill-opacity="1"><g transform="translate(165.938202, 221.026958)"><g><path d="M 3.40625 0.125 C 2.820312 0.125 2.382812 -0.03125 2.09375 -0.34375 C 1.800781 -0.664062 1.65625 -1.128906 1.65625 -1.734375 L 1.65625 -7.296875 L 0.484375 -7.296875 C 0.421875 -7.296875 0.367188 -7.3125 0.328125 -7.34375 C 0.296875 -7.375 0.28125 -7.425781 0.28125 -7.5 L 0.28125 -7.78125 L 1.671875 -7.890625 L 1.859375 -10.796875 C 1.859375 -10.835938 1.878906 -10.878906 1.921875 -10.921875 C 1.960938 -10.972656 2.007812 -11 2.0625 -11 L 2.4375 -11 L 2.4375 -7.890625 L 5 -7.890625 L 5 -7.296875 L 2.4375 -7.296875 L 2.4375 -1.78125 C 2.4375 -1.375 2.535156 -1.054688 2.734375 -0.828125 C 2.941406 -0.609375 3.21875 -0.5 3.5625 -0.5 C 3.894531 -0.5 4.265625 -0.65625 4.671875 -0.96875 C 4.742188 -1 4.796875 -1.015625 4.828125 -1.015625 C 4.898438 -1.015625 4.957031 -0.984375 5 -0.921875 L 5.1875 -0.625 C 4.976562 -0.394531 4.707031 -0.210938 4.375 -0.078125 C 4.039062 0.0546875 3.71875 0.125 3.40625 0.125 Z M 3.40625 0.125 "/></g></g></g><g fill="#ffffff" fill-opacity="1"><g transform="translate(171.747586, 221.026958)"><g><path d="M 5.4375 -8.28125 C 5.894531 -8.28125 6.3125 -8.175781 6.6875 -7.96875 L 6.546875 -7.5625 C 6.523438 -7.46875 6.476562 -7.394531 6.40625 -7.34375 C 6.332031 -7.300781 6.253906 -7.296875 6.171875 -7.328125 C 6.015625 -7.378906 5.875 -7.421875 5.75 -7.453125 C 5.625 -7.492188 5.46875 -7.515625 5.28125 -7.515625 C 4.675781 -7.515625 4.171875 -7.320312 3.765625 -6.9375 C 3.359375 -6.550781 3.035156 -6 2.796875 -5.28125 L 2.796875 -0.65625 L 3.671875 -0.625 C 3.773438 -0.613281 3.847656 -0.582031 3.890625 -0.53125 C 3.941406 -0.488281 3.96875 -0.421875 3.96875 -0.328125 L 3.96875 0 L 0.84375 0 L 0.84375 -0.328125 C 0.84375 -0.421875 0.867188 -0.488281 0.921875 -0.53125 C 0.972656 -0.582031 1.050781 -0.613281 1.15625 -0.625 L 2.03125 -0.65625 L 2.03125 -7.515625 L 1.140625 -7.546875 C 1.035156 -7.554688 0.957031 -7.582031 0.90625 -7.625 C 0.851562 -7.664062 0.828125 -7.738281 0.828125 -7.84375 L 0.828125 -8.140625 L 2.4375 -8.140625 C 2.53125 -8.140625 2.597656 -8.125 2.640625 -8.09375 C 2.679688 -8.050781 2.703125 -7.988281 2.703125 -7.90625 L 2.765625 -6.171875 C 3.316406 -7.578125 4.207031 -8.28125 5.4375 -8.28125 Z M 5.4375 -8.28125 "/></g></g></g><g fill="#ffffff" fill-opacity="1"><g transform="translate(178.882485, 221.026958)"><g><path d="M 2.390625 -10.21875 C 2.179688 -10.21875 2.007812 -10.289062 1.875 -10.4375 C 1.738281 -10.582031 1.671875 -10.753906 1.671875 -10.953125 C 1.671875 -11.148438 1.738281 -11.316406 1.875 -11.453125 C 2.007812 -11.597656 2.179688 -11.671875 2.390625 -11.671875 C 2.585938 -11.671875 2.753906 -11.597656 2.890625 -11.453125 C 3.023438 -11.316406 3.09375 -11.148438 3.09375 -10.953125 C 3.09375 -10.753906 3.023438 -10.582031 2.890625 -10.4375 C 2.753906 -10.289062 2.585938 -10.21875 2.390625 -10.21875 Z M 3.625 -0.625 C 3.84375 -0.601562 3.953125 -0.503906 3.953125 -0.328125 L 3.953125 0 L 0.8125 0 L 0.8125 -0.328125 C 0.8125 -0.503906 0.921875 -0.601562 1.140625 -0.625 L 2 -0.65625 L 2 -7.5 L 1.140625 -7.53125 C 0.921875 -7.550781 0.8125 -7.644531 0.8125 -7.8125 L 0.8125 -8.140625 L 2.78125 -8.140625 L 2.78125 -0.65625 Z M 3.625 -0.625 "/></g></g></g><g fill="#ffffff" fill-opacity="1"><g transform="translate(183.49726, 221.026958)"><g><path d="M 7.359375 -0.625 C 7.578125 -0.601562 7.6875 -0.503906 7.6875 -0.328125 L 7.6875 0 L 6.296875 0 C 6.117188 0 6.015625 -0.078125 5.984375 -0.234375 L 5.875 -1.28125 C 5.332031 -0.757812 4.84375 -0.394531 4.40625 -0.1875 C 3.976562 0.0195312 3.453125 0.125 2.828125 0.125 C 2.171875 0.125 1.644531 -0.0625 1.25 -0.4375 C 0.851562 -0.8125 0.65625 -1.328125 0.65625 -1.984375 C 0.65625 -2.847656 1.175781 -3.472656 2.21875 -3.859375 C 3.269531 -4.242188 4.476562 -4.441406 5.84375 -4.453125 L 5.84375 -5.296875 C 5.84375 -6.066406 5.679688 -6.648438 5.359375 -7.046875 C 5.035156 -7.441406 4.550781 -7.640625 3.90625 -7.640625 C 3.519531 -7.640625 3.125 -7.550781 2.71875 -7.375 C 2.3125 -7.207031 1.988281 -7.003906 1.75 -6.765625 C 1.632812 -6.648438 1.519531 -6.59375 1.40625 -6.59375 C 1.320312 -6.59375 1.25 -6.640625 1.1875 -6.734375 L 1.0625 -6.984375 C 1.5 -7.421875 1.953125 -7.742188 2.421875 -7.953125 C 2.898438 -8.171875 3.421875 -8.28125 3.984375 -8.28125 C 4.847656 -8.28125 5.5 -8.007812 5.9375 -7.46875 C 6.382812 -6.925781 6.609375 -6.203125 6.609375 -5.296875 L 6.609375 -0.640625 Z M 5.84375 -3.921875 C 4.664062 -3.910156 3.628906 -3.757812 2.734375 -3.46875 C 1.847656 -3.1875 1.40625 -2.695312 1.40625 -2 C 1.40625 -1.507812 1.550781 -1.125 1.84375 -0.84375 C 2.132812 -0.570312 2.53125 -0.4375 3.03125 -0.4375 C 3.625 -0.4375 4.117188 -0.539062 4.515625 -0.75 C 4.910156 -0.96875 5.351562 -1.320312 5.84375 -1.8125 Z M 5.84375 -3.921875 "/></g></g></g><g fill="#ffffff" fill-opacity="1"><g transform="translate(191.892228, 221.026958)"><g><path d="M 3.609375 -0.625 C 3.828125 -0.601562 3.9375 -0.503906 3.9375 -0.328125 L 3.9375 0 L 0.796875 0 L 0.796875 -0.328125 C 0.796875 -0.503906 0.90625 -0.601562 1.125 -0.625 L 1.984375 -0.65625 L 1.984375 -11.25 L 1.125 -11.28125 C 0.90625 -11.3125 0.796875 -11.410156 0.796875 -11.578125 L 0.796875 -11.90625 L 2.765625 -11.90625 L 2.765625 -0.65625 Z M 3.609375 -0.625 "/></g></g></g><g fill="#ffffff" fill-opacity="1"><g transform="translate(196.457908, 221.026958)"><g/></g></g><g fill="#ffffff" fill-opacity="1"><g transform="translate(200.401737, 221.026958)"><g><path d="M 12.078125 -11.265625 C 12.078125 -11.097656 11.96875 -11.003906 11.75 -10.984375 L 11.125 -10.9375 L 6.609375 0 L 5.875 0 L 1.359375 -10.9375 L 0.71875 -10.984375 C 0.5 -11.003906 0.390625 -11.097656 0.390625 -11.265625 L 0.390625 -11.578125 L 3.5 -11.578125 L 3.5 -11.265625 C 3.5 -11.097656 3.390625 -11.003906 3.171875 -10.984375 L 2.21875 -10.9375 L 6 -1.75 C 6.09375 -1.519531 6.175781 -1.253906 6.25 -0.953125 C 6.3125 -1.234375 6.394531 -1.5 6.5 -1.75 L 10.234375 -10.9375 L 9.296875 -10.984375 C 9.085938 -10.992188 8.984375 -11.085938 8.984375 -11.265625 L 8.984375 -11.578125 L 12.078125 -11.578125 Z M 12.078125 -11.265625 "/></g></g></g><g fill="#ffffff" fill-opacity="1"><g transform="translate(212.887817, 221.026958)"><g><path d="M 7.359375 -0.625 C 7.578125 -0.601562 7.6875 -0.503906 7.6875 -0.328125 L 7.6875 0 L 6.296875 0 C 6.117188 0 6.015625 -0.078125 5.984375 -0.234375 L 5.875 -1.28125 C 5.332031 -0.757812 4.84375 -0.394531 4.40625 -0.1875 C 3.976562 0.0195312 3.453125 0.125 2.828125 0.125 C 2.171875 0.125 1.644531 -0.0625 1.25 -0.4375 C 0.851562 -0.8125 0.65625 -1.328125 0.65625 -1.984375 C 0.65625 -2.847656 1.175781 -3.472656 2.21875 -3.859375 C 3.269531 -4.242188 4.476562 -4.441406 5.84375 -4.453125 L 5.84375 -5.296875 C 5.84375 -6.066406 5.679688 -6.648438 5.359375 -7.046875 C 5.035156 -7.441406 4.550781 -7.640625 3.90625 -7.640625 C 3.519531 -7.640625 3.125 -7.550781 2.71875 -7.375 C 2.3125 -7.207031 1.988281 -7.003906 1.75 -6.765625 C 1.632812 -6.648438 1.519531 -6.59375 1.40625 -6.59375 C 1.320312 -6.59375 1.25 -6.640625 1.1875 -6.734375 L 1.0625 -6.984375 C 1.5 -7.421875 1.953125 -7.742188 2.421875 -7.953125 C 2.898438 -8.171875 3.421875 -8.28125 3.984375 -8.28125 C 4.847656 -8.28125 5.5 -8.007812 5.9375 -7.46875 C 6.382812 -6.925781 6.609375 -6.203125 6.609375 -5.296875 L 6.609375 -0.640625 Z M 5.84375 -3.921875 C 4.664062 -3.910156 3.628906 -3.757812 2.734375 -3.46875 C 1.847656 -3.1875 1.40625 -2.695312 1.40625 -2 C 1.40625 -1.507812 1.550781 -1.125 1.84375 -0.84375 C 2.132812 -0.570312 2.53125 -0.4375 3.03125 -0.4375 C 3.625 -0.4375 4.117188 -0.539062 4.515625 -0.75 C 4.910156 -0.96875 5.351562 -1.320312 5.84375 -1.8125 Z M 5.84375 -3.921875 "/></g></g></g><g fill="#ffffff" fill-opacity="1"><g transform="translate(221.282784, 221.026958)"><g><path d="M 3.609375 -0.625 C 3.828125 -0.601562 3.9375 -0.503906 3.9375 -0.328125 L 3.9375 0 L 0.796875 0 L 0.796875 -0.328125 C 0.796875 -0.503906 0.90625 -0.601562 1.125 -0.625 L 1.984375 -0.65625 L 1.984375 -11.25 L 1.125 -11.28125 C 0.90625 -11.3125 0.796875 -11.410156 0.796875 -11.578125 L 0.796875 -11.90625 L 2.765625 -11.90625 L 2.765625 -0.65625 Z M 3.609375 -0.625 "/></g></g></g><g fill="#ffffff" fill-opacity="1"><g transform="translate(225.848465, 221.026958)"><g><path d="M 9.0625 -7.84375 C 9.0625 -7.664062 8.953125 -7.566406 8.734375 -7.546875 L 8.15625 -7.53125 L 5 0 L 4.3125 0 L 1.140625 -7.53125 L 0.609375 -7.546875 C 0.398438 -7.554688 0.296875 -7.65625 0.296875 -7.84375 L 0.296875 -8.140625 L 3.140625 -8.140625 L 3.140625 -7.84375 C 3.140625 -7.664062 3.03125 -7.566406 2.8125 -7.546875 L 1.96875 -7.515625 L 4.46875 -1.515625 C 4.539062 -1.347656 4.601562 -1.113281 4.65625 -0.8125 C 4.769531 -1.207031 4.84375 -1.441406 4.875 -1.515625 L 7.375 -7.515625 L 6.53125 -7.546875 C 6.3125 -7.566406 6.203125 -7.664062 6.203125 -7.84375 L 6.203125 -8.140625 L 9.0625 -8.140625 Z M 9.0625 -7.84375 "/></g></g></g><g fill="#ffffff" fill-opacity="1"><g transform="translate(235.323487, 221.026958)"><g><path d="M 4.296875 -8.28125 C 5.296875 -8.28125 6.082031 -7.945312 6.65625 -7.28125 C 7.226562 -6.613281 7.515625 -5.75 7.515625 -4.6875 C 7.515625 -4.488281 7.4375 -4.390625 7.28125 -4.390625 L 1.40625 -4.390625 C 1.40625 -3.171875 1.65625 -2.21875 2.15625 -1.53125 C 2.65625 -0.84375 3.410156 -0.5 4.421875 -0.5 C 4.816406 -0.5 5.234375 -0.570312 5.671875 -0.71875 C 6.117188 -0.863281 6.46875 -1.046875 6.71875 -1.265625 C 6.8125 -1.347656 6.898438 -1.390625 6.984375 -1.390625 C 7.054688 -1.390625 7.113281 -1.363281 7.15625 -1.3125 L 7.359375 -1.046875 C 7.078125 -0.703125 6.644531 -0.425781 6.0625 -0.21875 C 5.476562 -0.0078125 4.910156 0.09375 4.359375 0.09375 C 3.140625 0.09375 2.210938 -0.304688 1.578125 -1.109375 C 0.941406 -1.910156 0.625 -2.953125 0.625 -4.234375 C 0.625 -5.015625 0.769531 -5.707031 1.0625 -6.3125 C 1.363281 -6.925781 1.789062 -7.40625 2.34375 -7.75 C 2.90625 -8.101562 3.554688 -8.28125 4.296875 -8.28125 Z M 4.3125 -7.6875 C 3.488281 -7.6875 2.828125 -7.4375 2.328125 -6.9375 C 1.835938 -6.445312 1.539062 -5.765625 1.4375 -4.890625 L 6.8125 -4.890625 C 6.8125 -5.742188 6.582031 -6.421875 6.125 -6.921875 C 5.675781 -7.429688 5.070312 -7.6875 4.3125 -7.6875 Z M 4.3125 -7.6875 "/></g></g></g><g fill="#ffffff" fill-opacity="1"><g transform="translate(243.456617, 221.026958)"><g><path d="M 6.34375 -2.390625 C 6.34375 -1.628906 6.070312 -1.019531 5.53125 -0.5625 C 5 -0.101562 4.316406 0.125 3.484375 0.125 C 2.703125 0.125 1.898438 -0.0234375 1.078125 -0.328125 L 1.078125 -2.3125 L 1.46875 -2.3125 C 1.695312 -2.3125 1.816406 -2.175781 1.828125 -1.90625 L 1.9375 -0.703125 C 2.351562 -0.523438 2.878906 -0.4375 3.515625 -0.4375 C 4.117188 -0.4375 4.617188 -0.597656 5.015625 -0.921875 C 5.410156 -1.253906 5.609375 -1.695312 5.609375 -2.25 C 5.609375 -2.695312 5.425781 -3.035156 5.0625 -3.265625 C 4.695312 -3.503906 4.125 -3.738281 3.34375 -3.96875 C 2.59375 -4.175781 2.023438 -4.4375 1.640625 -4.75 C 1.265625 -5.0625 1.078125 -5.5 1.078125 -6.0625 C 1.078125 -6.5 1.195312 -6.882812 1.4375 -7.21875 C 1.6875 -7.550781 2.015625 -7.804688 2.421875 -7.984375 C 2.835938 -8.171875 3.285156 -8.265625 3.765625 -8.265625 C 4.378906 -8.265625 5.097656 -8.125 5.921875 -7.84375 L 5.921875 -5.890625 L 5.53125 -5.890625 C 5.3125 -5.890625 5.191406 -6.019531 5.171875 -6.28125 L 5.078125 -7.453125 C 4.648438 -7.597656 4.21875 -7.671875 3.78125 -7.671875 C 3.25 -7.671875 2.785156 -7.53125 2.390625 -7.25 C 2.003906 -6.96875 1.8125 -6.59375 1.8125 -6.125 C 1.8125 -5.820312 1.90625 -5.570312 2.09375 -5.375 C 2.28125 -5.1875 2.519531 -5.03125 2.8125 -4.90625 C 3.113281 -4.78125 3.535156 -4.640625 4.078125 -4.484375 C 4.796875 -4.273438 5.351562 -4.007812 5.75 -3.6875 C 6.144531 -3.363281 6.34375 -2.929688 6.34375 -2.390625 Z M 6.34375 -2.390625 "/></g></g></g></svg>